<?xml version="1.0" encoding="utf-8"?>
<!-- Svg Vector Icons : http://www.onlinewebfonts.com/icon -->
<!DOCTYPE svg PUBLIC "-//W3C//DTD SVG 1.1//EN" "http://www.w3.org/Graphics/SVG/1.1/DTD/svg11.dtd">
<svg version="1.1" xmlns="http://www.w3.org/2000/svg" xmlns:xlink="http://www.w3.org/1999/xlink" x="0px" y="0px" viewBox="0 0 1000 1000" enable-background="new 0 0 1000 1000" xml:space="preserve">
<metadata> Svg Vector Icons : http://www.onlinewebfonts.com/icon </metadata>
<g><path d="M570,318.4V173.2c0-26.8-14.2-51.4-37-64.1c-22.7-12.6-50.4-11.2-71.9,3.6l-420,290.5C21.7,416.7,10,439.4,10,463.7c0,24.3,11.7,47,31.2,60.4l420,290.5c21.5,14.9,49.1,16.3,71.9,3.6c22.7-12.7,37-37.2,37-64.1V608.9c182.8,0,337.9,121.4,395.6,290.5C981.1,854,990,805.2,990,754.2C990,513.5,802,318.4,570,318.4z"/></g>
</svg>