<?xml version="1.0" encoding="UTF-8" standalone="no"?>
<!-- Generator: Adobe Illustrator 18.1.1, SVG Export Plug-In . SVG Version: 6.00 Build 0)  -->

<svg
   xmlns:dc="http://purl.org/dc/elements/1.1/"
   xmlns:cc="http://creativecommons.org/ns#"
   xmlns:rdf="http://www.w3.org/1999/02/22-rdf-syntax-ns#"
   xmlns:svg="http://www.w3.org/2000/svg"
   xmlns="http://www.w3.org/2000/svg"
   xmlns:sodipodi="http://sodipodi.sourceforge.net/DTD/sodipodi-0.dtd"
   xmlns:inkscape="http://www.inkscape.org/namespaces/inkscape"
   version="1.1"
   id="Capa_1"
   x="0px"
   y="0px"
   viewBox="0 0 31.535 31.535"
   style="enable-background:new 0 0 31.535 31.535;"
   xml:space="preserve"
   sodipodi:docname="bookshelf.svg"
   inkscape:version="0.92.4 (5da689c313, 2019-01-14)"><metadata
   id="metadata41"><rdf:RDF><cc:Work
       rdf:about=""><dc:format>image/svg+xml</dc:format><dc:type
         rdf:resource="http://purl.org/dc/dcmitype/StillImage" /><dc:title></dc:title></cc:Work></rdf:RDF></metadata><defs
   id="defs39" /><sodipodi:namedview
   pagecolor="#ffffff"
   bordercolor="#666666"
   borderopacity="1"
   objecttolerance="10"
   gridtolerance="10"
   guidetolerance="10"
   inkscape:pageopacity="0"
   inkscape:pageshadow="2"
   inkscape:window-width="2560"
   inkscape:window-height="1346"
   id="namedview37"
   showgrid="false"
   inkscape:pagecheckerboard="true"
   inkscape:zoom="7.4837483"
   inkscape:cx="15.7675"
   inkscape:cy="15.7675"
   inkscape:window-x="-11"
   inkscape:window-y="-11"
   inkscape:window-maximized="1"
   inkscape:current-layer="Capa_1" />
<g
   id="g4"
   style="fill:#ffffff;fill-opacity:1">
	<path
   style="fill:#ffffff;fill-opacity:1"
   d="M 26.65,0 H 4.884 C 4.392,0 3.992,0.399 3.992,0.894 v 29.748 c 0,0.492 0.4,0.893 0.892,0.893 H 26.65 c 0.493,0 0.893,-0.398 0.893,-0.893 V 0.894 C 27.542,0.399 27.143,0 26.65,0 Z m -6.481,19.339 h -2.092 v -4.407 -0.918 h -2.143 v 5.325 h -0.886 v -5.325 h -2.14 v 5.325 H 11.93 V 14.014 H 9.787 v 5.325 H 8.995 V 14.014 H 6.853 v 5.325 H 5.775 v -7.926 h 19.983 v 7.926 h -4.027 l 0.661,-0.313 -2.38,-5.012 -1.935,0.918 z M 24.075,9.234 25.758,5.16 v 4.074 z m 1.683,-7.449 v 2.896 l -1.812,-0.745 -2.117,5.128 0.42,0.171 H 18.077 V 3.687 H 15.934 V 9.235 H 14.955 V 3.687 h -2.14 V 9.235 H 12.023 V 3.687 H 9.88 V 9.235 H 9.138 V 3.687 H 6.995 v 5.548 h -1.22 v -7.45 c 0,0 19.983,0 19.983,0 z M 5.775,21.518 h 19.983 v 3.524 l -1.72,-0.772 -2.272,5.062 0.935,0.418 H 18.078 V 24.465 H 15.935 V 29.75 H 15.049 V 24.465 H 12.908 V 29.75 H 11.93 V 24.465 H 9.787 V 29.75 H 8.995 V 24.465 H 6.853 V 29.75 H 5.775 Z m 18.151,8.232 1.832,-4.084 v 4.084 z"
   id="path2"
   inkscape:connector-curvature="0" />
</g>
<g
   id="g6">
</g>
<g
   id="g8">
</g>
<g
   id="g10">
</g>
<g
   id="g12">
</g>
<g
   id="g14">
</g>
<g
   id="g16">
</g>
<g
   id="g18">
</g>
<g
   id="g20">
</g>
<g
   id="g22">
</g>
<g
   id="g24">
</g>
<g
   id="g26">
</g>
<g
   id="g28">
</g>
<g
   id="g30">
</g>
<g
   id="g32">
</g>
<g
   id="g34">
</g>
</svg>