<?xml version="1.0" encoding="UTF-8" standalone="no"?>
<!-- Generator: Adobe Illustrator 19.0.0, SVG Export Plug-In . SVG Version: 6.00 Build 0)  -->

<svg
   xmlns:dc="http://purl.org/dc/elements/1.1/"
   xmlns:cc="http://creativecommons.org/ns#"
   xmlns:rdf="http://www.w3.org/1999/02/22-rdf-syntax-ns#"
   xmlns:svg="http://www.w3.org/2000/svg"
   xmlns="http://www.w3.org/2000/svg"
   xmlns:sodipodi="http://sodipodi.sourceforge.net/DTD/sodipodi-0.dtd"
   xmlns:inkscape="http://www.inkscape.org/namespaces/inkscape"
   sodipodi:docname="collection.svg"
   xml:space="preserve"
   viewBox="0 0 62.067394 61"
   y="0px"
   x="0px"
   id="Capa_1"
   version="1.1"
   inkscape:version="0.92.4 (5da689c313, 2019-01-14)"
   width="62.067394"
   height="61"><metadata
   id="metadata57"><rdf:RDF><cc:Work
       rdf:about=""><dc:format>image/svg+xml</dc:format><dc:type
         rdf:resource="http://purl.org/dc/dcmitype/StillImage" /><dc:title></dc:title></cc:Work></rdf:RDF></metadata><defs
   id="defs55" /><sodipodi:namedview
   pagecolor="#ffffff"
   bordercolor="#666666"
   borderopacity="1"
   objecttolerance="10"
   gridtolerance="10"
   guidetolerance="10"
   inkscape:pageopacity="0"
   inkscape:pageshadow="2"
   inkscape:window-width="1278"
   inkscape:window-height="1334"
   id="namedview53"
   showgrid="false"
   inkscape:zoom="11.121439"
   inkscape:cx="8.7257511"
   inkscape:cy="26.03019"
   inkscape:window-x="672"
   inkscape:window-y="61"
   inkscape:window-maximized="0"
   inkscape:current-layer="g20"
   inkscape:pagecheckerboard="true"
   fit-margin-top="0"
   fit-margin-left="0"
   fit-margin-right="0"
   fit-margin-bottom="0" />
<g
   id="g20"
   transform="translate(1.0481665,0.49)">
	<path
   d="M 59.766,15.896 59.403,15.51 h -1.837 l 0.409,-3.34 C 58.018,11.746 57.878,11.322 57.593,11.007 57.307,10.692 56.899,10.51 56.473,10.51 H 54.036 V 7 c 0,-0.821 -0.669,-1.49 -1.491,-1.49 H 50.036 V 2 c 0,-0.821 -0.669,-1.49 -1.491,-1.49 H 11.526 c -0.821,0 -1.49,0.669 -1.49,1.49 V 5.51 H 7.526 C 6.705,5.51 6.036,6.179 6.036,7 v 3.51 H 3.599 c -0.426,0 -0.834,0.182 -1.12,0.497 -0.285,0.315 -0.425,0.739 -0.379,1.185 l 0.406,3.318 h -1.37 c -0.321,0 -0.623,0.141 -0.83,0.386 L 0,16.306 5.959,58.162 c 0.138,0.781 0.813,1.348 1.605,1.348 h 44.942 c 0.791,0 1.467,-0.565 1.611,-1.38 l 5.886,-41.352 c 0.056,-0.316 -0.031,-0.637 -0.237,-0.882 z M 12.036,2.51 h 36 v 3 h -36 z m -4,5 h 2 40 2 v 3 h -44 z m -3.883,5 h 1.883 48 1.882 l -0.367,3 H 4.521 Z m 48.034,45 H 7.886 l -5.695,-40 h 0.561 54.568 0.56 z"
   id="path2"
   inkscape:connector-curvature="0"
   style="fill:#ffffff;fill-opacity:1;stroke:#ffffff;stroke-width:2;stroke-miterlimit:4;stroke-dasharray:none;stroke-opacity:1" />
	
	
	
	
	
	
	
	
<g
   transform="matrix(0.07994301,0,0,0.07994301,8.3468452,18.555124)"
   class=""
   id="g6"
   style="fill:#ffffff;fill-opacity:1;stroke:none;stroke-width:28.52031708;stroke-miterlimit:4;stroke-dasharray:none;stroke-opacity:1"><path
     style="fill:#ffffff;fill-opacity:1;stroke:none;stroke-width:37.5267334;stroke-miterlimit:4;stroke-dasharray:none;stroke-opacity:1"
     inkscape:connector-curvature="0"
     id="path4"
     d="m 273.53532,37.031611 c -27.50787,0.0881 -46.82797,20.507252 -57.30427,45.233255 -9.03715,21.329204 -12.06995,45.172604 -11.98208,65.316424 -27.35692,18.1884 -56.8719,35.9841 -79.58036,53.61812 -11.63961,9.03879 -21.48125,17.98483 -28.391405,27.43706 -6.796373,9.29408 -11.197931,19.57272 -9.371326,31.44493 0.76549,4.97538 3.430493,8.99326 6.176189,11.92117 2.734372,2.91227 5.814525,5.16143 9.241342,7.25202 6.81347,4.15721 15.10256,7.59324 24.06243,10.54459 13.22148,4.35691 27.74664,7.56515 40.18692,8.92057 -9.9875,23.53784 -23.61352,44.26004 -34.91719,63.34859 -12.54361,21.18371 -22.80164,40.66659 -19.61156,61.40084 0.44446,2.88886 0.75808,5.132 1.35599,7.37408 0.59575,2.23131 1.6607,5.0014 4.22941,7.18308 2.55746,2.17213 5.37264,2.75209 7.62983,2.98872 2.25636,0.2386 4.49083,0.208 7.36229,0.20542 0,0 78.8285,-0.0709 78.8285,-0.0709 5.72504,-0.005 9.93036,0.33421 14.151,-2.41221 4.24692,-2.76162 5.72764,-6.55713 8.698,-12.2867 0,0 0.0606,-0.11531 0.0606,-0.11531 0,0 0.0547,-0.11967 0.0547,-0.11967 0,0 6.76221,-14.47506 15.13136,-29.29251 4.28341,-7.5836 9.00934,-15.25682 13.17262,-20.76949 2.10049,-2.779 4.07251,-4.99454 5.49355,-6.25085 0.43488,-0.3832 0.63105,-0.45483 0.91083,-0.61745 0.27472,0.16189 0.46975,0.23301 0.89447,0.6151 1.38777,1.25267 3.30116,3.46328 5.32815,6.23717 4.01775,5.50293 8.54134,13.16602 12.62507,20.74128 7.97937,14.80326 14.36258,29.26918 14.36258,29.26918 0,0 0.0516,0.11888 0.0516,0.11888 0,0 0.0575,0.11525 0.0575,0.11525 2.82057,5.7263 4.18872,9.49819 8.33756,12.26121 4.12287,2.74595 8.33224,2.4072 13.98362,2.40212 0,0 79.34955,-0.0714 79.34955,-0.0714 2.83441,-0.003 5.0403,0.0255 7.29505,-0.21894 2.2553,-0.24458 5.10827,-0.85095 7.71142,-3.04428 2.61424,-2.20387 3.72521,-4.95203 4.3743,-7.17858 0.65353,-2.23656 1.02932,-4.48365 1.55233,-7.37864 3.75396,-20.77916 -6.02184,-40.27303 -18.04291,-61.46071 -10.82938,-19.08548 -23.94171,-39.79549 -33.3287,-63.33161 12.50827,-1.4009 27.1602,-4.66228 40.53979,-9.07265 9.06914,-2.98738 17.48006,-6.46046 24.4301,-10.6495 3.49598,-2.10733 6.6484,-4.37243 9.46982,-7.30089 2.8376,-2.94438 5.62002,-6.98093 6.52134,-11.96994 2.15078,-11.90513 -1.99562,-22.188 -8.57243,-31.47309 -6.68582,-9.44164 -16.32645,-18.36164 -27.76662,-27.36439 -22.31071,-17.55689 -51.42784,-35.23414 -78.35379,-53.30137 0.62355,-20.15888 -1.78082,-44.00808 -10.26332,-65.298971 -9.83204,-24.680698 -28.6274,-44.987185 -56.1439,-44.899058 0,0 0,0 0,0" /></g></g>
<g
   id="g22"
   transform="translate(1.0481665,0.49)">
</g>
<g
   id="g24"
   transform="translate(1.0481665,0.49)">
</g>
<g
   id="g26"
   transform="translate(1.0481665,0.49)">
</g>
<g
   id="g28"
   transform="translate(1.0481665,0.49)">
</g>
<g
   id="g30"
   transform="translate(1.0481665,0.49)">
</g>
<g
   id="g32"
   transform="translate(1.0481665,0.49)">
</g>
<g
   id="g34"
   transform="translate(1.0481665,0.49)">
</g>
<g
   id="g36"
   transform="translate(1.0481665,0.49)">
</g>
<g
   id="g38"
   transform="translate(1.0481665,0.49)">
</g>
<g
   id="g40"
   transform="translate(1.0481665,0.49)">
</g>
<g
   id="g42"
   transform="translate(1.0481665,0.49)">
</g>
<g
   id="g44"
   transform="translate(1.0481665,0.49)">
</g>
<g
   id="g46"
   transform="translate(1.0481665,0.49)">
</g>
<g
   id="g48"
   transform="translate(1.0481665,0.49)">
</g>
<g
   id="g50"
   transform="translate(1.0481665,0.49)">
</g>
</svg>