<?xml version="1.0" encoding="utf-8"?>
<!-- Svg Vector Icons : http://www.onlinewebfonts.com/icon -->
<!DOCTYPE svg PUBLIC "-//W3C//DTD SVG 1.1//EN" "http://www.w3.org/Graphics/SVG/1.1/DTD/svg11.dtd">
<svg version="1.1" xmlns="http://www.w3.org/2000/svg" xmlns:xlink="http://www.w3.org/1999/xlink" x="0px" y="0px" viewBox="0 0 1000 1000" enable-background="new 0 0 1000 1000" xml:space="preserve">
<metadata> Svg Vector Icons : http://www.onlinewebfonts.com/icon </metadata>
<g><path d="M500.2,550.3c-5,0-10.1-1.3-14.6-3.7l-454.4-248c-10-5.5-16.1-16-16-27.4c0.2-11.4,6.7-21.8,16.9-26.9L491.2,13c8.7-4.4,18.9-4.3,27.6,0.1l454.4,231.3c10.1,5.2,16.6,15.5,16.7,27c0.2,11.4-6.1,22-16.1,27.3l-459.2,248C510.2,549,505.2,550.3,500.2,550.3z M111.9,272.7l388.5,212l393-212.3L504.9,74.7L111.9,272.7z"/><path d="M968,469.6l-90.8-46.2l-65.6,35.4l76.5,38.9L495.1,710L106.6,498l81.6-41.1l-65.4-35.7l-95.9,48.3c-10.2,5.1-16.7,15.5-16.9,26.9c-0.2,11.4,6,22,16,27.4l454.4,248c4.6,2.5,9.6,3.7,14.6,3.7c5,0,10-1.2,14.5-3.7l459.2-248c10-5.4,16.2-15.9,16.1-27.3C984.6,485.2,978.1,474.8,968,469.6z"/><path d="M968,684.3l-86-42.4l-65.6,35.4l71.7,35.1l-393,212.3l-388.5-212l75.8-34.4l-65.4-35.7l-90.2,41.6c-10.2,5.1-16.7,15.5-16.9,26.9c-0.2,11.4,6,22,16,27.4l454.4,248c4.6,2.5,9.6,3.7,14.6,3.7c5,0,10-1.2,14.5-3.7l459.2-248c10-5.4,16.2-15.9,16.1-27.3C984.6,699.9,978.1,689.5,968,684.3z"/></g>
</svg>