<?xml version="1.0" encoding="UTF-8" standalone="no"?>
<svg
   xmlns:dc="http://purl.org/dc/elements/1.1/"
   xmlns:cc="http://creativecommons.org/ns#"
   xmlns:rdf="http://www.w3.org/1999/02/22-rdf-syntax-ns#"
   xmlns:svg="http://www.w3.org/2000/svg"
   xmlns="http://www.w3.org/2000/svg"
   xmlns:sodipodi="http://sodipodi.sourceforge.net/DTD/sodipodi-0.dtd"
   xmlns:inkscape="http://www.inkscape.org/namespaces/inkscape"
   id="Capa_1"
   data-name="Capa 1"
   viewBox="0 0 80.26755 80.833156"
   version="1.1"
   sodipodi:docname="borrow2.svg"
   width="80.267548"
   height="80.833153"
   inkscape:version="0.92.4 (5da689c313, 2019-01-14)">
  <metadata
     id="metadata19">
    <rdf:RDF>
      <cc:Work
         rdf:about="">
        <dc:format>image/svg+xml</dc:format>
        <dc:type
           rdf:resource="http://purl.org/dc/dcmitype/StillImage" />
        <dc:title>prestamo</dc:title>
      </cc:Work>
    </rdf:RDF>
  </metadata>
  <sodipodi:namedview
     pagecolor="#ffffff"
     bordercolor="#666666"
     borderopacity="1"
     objecttolerance="10"
     gridtolerance="10"
     guidetolerance="10"
     inkscape:pageopacity="0"
     inkscape:pageshadow="2"
     inkscape:window-width="2560"
     inkscape:window-height="1346"
     id="namedview17"
     showgrid="false"
     fit-margin-top="0"
     fit-margin-left="0"
     fit-margin-right="0"
     fit-margin-bottom="0"
     inkscape:zoom="7.0105428"
     inkscape:cx="-9.5733351"
     inkscape:cy="60.461863"
     inkscape:window-x="-11"
     inkscape:window-y="-11"
     inkscape:window-maximized="1"
     inkscape:current-layer="g829"
     inkscape:pagecheckerboard="true" />
  <defs
     id="defs4">
    <style
       id="style2">.cls-1{fill:#fff;}</style>
  </defs>
  <title
     id="title6">prestamo</title>
  <g
     id="g829"
     transform="matrix(0.4913754,0,0,0.49501208,24.033009,1.2922698)">
    <path
       style="fill:#ffffff;stroke-width:0.82271588"
       inkscape:connector-curvature="0"
       id="path8"
       d="M 29.473785,-2.6105823 C 9.8730298,-2.6105814 0.06048813,21.085845 13.918635,34.943992 27.776782,48.802139 51.473208,38.989597 51.473209,19.388842 51.47321,7.2388953 41.623732,-2.6105829 29.473785,-2.6105823 Z"
       class="cls-1"
       sodipodi:nodetypes="ssss" />
    <path
       style="fill:#ffffff"
       inkscape:connector-curvature="0"
       id="path12"
       d="m 42.76,42.51626 v 0 c -7.73,4.75 -18,4.66 -26.17,1 -5.08,12 -14.14,33.5 -16.59,39.88 8.18,14.22 49.36,14.22 61,0 -0.02,-3.35 -12.03,-28.25 -18.24,-40.88 z"
       class="cls-1" />
  </g>
  <path
     d="m 0.18618529,31.206192 c -0.63,-0.23 0.59,0.28 0,0 z"
     id="path14"
     inkscape:connector-curvature="0" />
  <path
     inkscape:connector-curvature="0"
     style="overflow:hidden;fill:#ffffff;fill-opacity:1;stroke-width:0.06244577"
     d="m 78.352638,57.405212 c -8.238171,-2.116264 -15.139611,-6.219357 -18.256142,-7.598736 -4.03459,-1.78435 -6.35486,-0.344081 -15.690756,1.721935 -9.335891,2.067539 -13.364392,2.297432 -13.364392,2.297432 -1.341313,2.254805 0.3928,5.927043 3.486495,6.890779 3.093695,0.963737 14.474286,-0.11267 17.432482,-0.57398 1.428093,-0.223802 1.613836,1.492042 -0.07765,3.191139 -1.81176,1.820893 -6.423376,3.347946 -9.887035,4.374105 -5.012026,1.484419 -12.117479,-0.674463 -12.117479,-0.674463 0,0 -9.865717,-5.439848 -16.269299,-6.890781 -6.4051067,-1.45245 -5.8113367,4.019367 -5.8113367,4.019367 0,0 11.9621847,7.770775 15.6892337,9.76067 3.727049,1.991412 9.450081,7.272921 14.527576,6.890773 5.077497,-0.382141 23.303193,-5.114031 27.311907,-4.593341 1.779783,0.231418 4.55528,0.951556 7.169386,1.574253 0.07307,0.01675 0.146165,0.035 0.219236,0.05174 0.213153,0.06849 0.430865,0.135501 0.666848,0.135501 0.779519,0 1.434186,-0.426298 1.833081,-1.03529 0.08983,-0.17052 0.179652,-0.363877 0.269478,-0.552661 1.889413,-3.973699 3.809263,-11.883024 4.719709,-15.932836 0.304496,-1.355017 -0.513075,-2.711551 -1.851345,-3.055631 z"
     id="path2"
     sodipodi:nodetypes="ccccscccccccccccscccc" />
</svg>
