<?xml version="1.0" encoding="utf-8"?>
<!-- Svg Vector Icons : http://www.onlinewebfonts.com/icon -->
<!DOCTYPE svg PUBLIC "-//W3C//DTD SVG 1.1//EN" "http://www.w3.org/Graphics/SVG/1.1/DTD/svg11.dtd">
<svg version="1.1" xmlns="http://www.w3.org/2000/svg" xmlns:xlink="http://www.w3.org/1999/xlink" x="0px" y="0px" viewBox="0 0 1000 1000" enable-background="new 0 0 1000 1000" xml:space="preserve">
<metadata> Svg Vector Icons : http://www.onlinewebfonts.com/icon </metadata>
<g><path d="M901.5,71.9"/><path d="M258.6,798c-16.4,0-29.6-13.3-29.6-29.6V105.7c0-16.4,13.3-29.6,29.6-29.6c16.4,0,29.6,13.3,29.6,29.6v662.7C288.2,784.7,275,798,258.6,798z"/><path d="M390,798c-16.4,0-29.6-13.3-29.6-29.6V213.6c0-16.4,13.3-29.6,29.6-29.6c16.4,0,29.6,13.3,29.6,29.6v554.7C419.6,784.7,406.4,798,390,798z"/><path d="M521.4,798c-16.4,0-29.6-13.3-29.6-29.6V323.6c0-16.4,13.3-29.6,29.6-29.6s29.6,13.3,29.6,29.6v444.8C551,784.7,537.8,798,521.4,798z"/><path d="M901.1,928.1H98.9c-49,0-88.9-39.9-88.9-88.9V711.2c0-16.4,13.3-29.6,29.6-29.6c16.4,0,29.6,13.3,29.6,29.6v127.9c0,16.3,13.3,29.6,29.6,29.6h802.2c16.3,0,29.6-13.3,29.6-29.6V711.2c0-16.4,13.3-29.6,29.6-29.6s29.6,13.3,29.6,29.6v127.9C990,888.2,950.1,928.1,901.1,928.1z"/><path d="M756.6,790.8c-13.4,0-25.6-9.2-28.8-22.8L599.7,226.8c-3.8-15.9,6.1-31.9,22-35.7c15.9-3.8,31.9,6.1,35.7,22l128.1,541.1c3.8,15.9-6.1,31.9-22,35.7C761.2,790.5,758.9,790.8,756.6,790.8z"/></g>
</svg>