<?xml version="1.0" encoding="UTF-8" standalone="no"?>
<!-- Created with Inkscape (http://www.inkscape.org/) -->

<svg
   xmlns:dc="http://purl.org/dc/elements/1.1/"
   xmlns:cc="http://creativecommons.org/ns#"
   xmlns:rdf="http://www.w3.org/1999/02/22-rdf-syntax-ns#"
   xmlns:svg="http://www.w3.org/2000/svg"
   xmlns="http://www.w3.org/2000/svg"
   xmlns:sodipodi="http://sodipodi.sourceforge.net/DTD/sodipodi-0.dtd"
   xmlns:inkscape="http://www.inkscape.org/namespaces/inkscape"
   version="1.1"
   id="svg2"
   width="1870.6667"
   height="1737.3333"
   viewBox="0 0 1870.6667 1737.3333"
   sodipodi:docname="admin.svg"
   inkscape:version="0.92.4 (5da689c313, 2019-01-14)">
  <metadata
     id="metadata8">
    <rdf:RDF>
      <cc:Work
         rdf:about="">
        <dc:format>image/svg+xml</dc:format>
        <dc:type
           rdf:resource="http://purl.org/dc/dcmitype/StillImage" />
        <dc:title></dc:title>
      </cc:Work>
    </rdf:RDF>
  </metadata>
  <defs
     id="defs6" />
  <sodipodi:namedview
     pagecolor="#ffffff"
     bordercolor="#666666"
     borderopacity="1"
     objecttolerance="10"
     gridtolerance="10"
     guidetolerance="10"
     inkscape:pageopacity="0"
     inkscape:pageshadow="2"
     inkscape:window-width="1779"
     inkscape:window-height="998"
     id="namedview4"
     showgrid="false"
     inkscape:pagecheckerboard="true"
     inkscape:zoom="0.27168075"
     inkscape:cx="127.98666"
     inkscape:cy="1255.8133"
     inkscape:window-x="0"
     inkscape:window-y="0"
     inkscape:window-maximized="0"
     inkscape:current-layer="svg2" />
  <path
     style="fill:#ffffff;stroke-width:1.33333337;fill-opacity:1"
     d="m 1338.4115,1706.0868 -114,-26.6752 -18,2.1666 c -91.9947,11.0731 -146.8616,15.8995 -227.3334,19.9975 C 662.42301,1717.701 336.97093,1690.1942 158.39094,1632.2122 67.778439,1602.7918 16.402439,1567.711 4.2350394,1526.9508 c -5.9924,-20.0746 -0.216,-72.5106 12.9464996,-117.5234 25.9837,-88.8585 84.641201,-182.6512 166.554401,-266.3186 88.62118,-90.519 192.43105,-159.98939 310.00882,-207.46018 26.00653,-10.49986 70.09705,-25.43003 93,-31.49214 7.88333,-2.08661 14.33333,-4.1818 14.33333,-4.65596 0,-0.47416 -2.25,-2.35574 -5,-4.18132 -2.75,-1.82557 -11.3,-8.22842 -19,-14.22857 C 505.67437,825.45006 444.46605,743.83694 405.24529,651.97458 361.12439,548.63521 348.40891,442.90333 368.58157,347.10821 376.14563,311.18829 387.2777,279.26092 404.4331,244.28406 465.98261,118.79542 580.87897,31.682977 719.92753,5.0816075 c 47.28896,-9.0468497 112.3455,-9.0468497 159.63446,0 C 990.00731,26.210897 1084.8205,84.941772 1151.8048,173.7191 c 84.1269,111.49722 109.1345,250.36459 71.1337,395.00711 -24.7198,94.09126 -73.1897,183.04708 -139.3277,255.70499 -22.0677,24.24328 -58.6699,56.59584 -80.1993,70.888 -2.7501,1.82558 -5.00011,3.70716 -5.00011,4.18132 0,0.47416 6.45011,2.57852 14.33341,4.67635 34.925,9.29389 86.6473,28.12727 123.2181,44.86677 9.78,4.47661 19.5826,8.93271 21.7834,9.90244 3.9546,1.74248 4.8615,1.22532 77.3334,-44.0989 40.3324,-25.22414 73.7104,-45.8698 74.1732,-45.87927 0.4628,-0.009 11.1067,16.41083 23.6531,36.48952 l 22.8116,36.50671 8.3469,-1.72574 c 4.5908,-0.94914 11.797,-2.1463 16.0136,-2.66033 4.2167,-0.51404 7.7127,-1.31548 7.7691,-1.78097 0.8972,-7.41839 19.7251,-83.46367 20.6333,-83.3377 2.386,0.33094 235.9308,54.16638 236.2932,54.469 0.1994,0.16639 -3.8506,18.5052 -9,40.75294 -5.1492,22.24773 -9.3622,41.19335 -9.3622,42.10141 0,0.908 4.8612,5.1423 10.8025,9.4095 5.9415,4.26725 11.7915,8.46935 13,9.33815 1.844,1.3256 7.9881,-2.0495 38.1975,-20.98309 19.8,-12.40951 36.3769,-22.57035 36.8376,-22.57967 0.9833,-0.0199 129.1865,204.84746 129.1116,206.31896 -0.028,0.5486 -16.3903,11.1385 -36.3606,23.533 l -36.3098,22.5354 2.7534,16.0888 2.7536,16.0888 39.2738,8.9969 c 21.6005,4.9484 40.5313,9.3057 42.0682,9.683 2.7058,0.6641 1.9246,4.4537 -24.5414,119.0455 -15.0348,65.0977 -27.5288,118.5958 -27.7644,118.8848 -0.2356,0.289 -18.8919,-3.7659 -41.4586,-9.0107 -22.5665,-5.2449 -41.4177,-9.5313 -41.8913,-9.5255 -1.2576,0.016 -19.1972,25.655 -18.8171,26.8932 0.177,0.5764 10.27,17.0492 22.4291,36.6062 17.9861,28.9297 21.7787,35.8592 20.3449,37.1732 -0.9693,0.8882 -47.4552,30.1324 -103.302,64.9869 l -101.5396,63.3719 -22.4565,-36.0119 c -12.3512,-19.8065 -23.0728,-36.2484 -23.8259,-36.5373 -1.3824,-0.5306 -31.227,4.226 -31.8269,5.0722 -0.1779,0.2511 -4.0797,16.9564 -8.6707,37.1231 -10.2265,44.9216 -10.6768,46.6899 -11.8588,46.5723 -0.5217,-0.052 -52.2486,-12.0983 -114.9486,-26.7696 z M 911.71716,1593.645 c 109.28224,-109.2881 111.27414,-111.3726 109.88394,-115 -0.7787,-2.0318 -42.93354,-104.0581 -93.67736,-226.7249 l -92.26151,-223.0307 36.72353,-41.96937 c 20.19795,-23.08312 36.40976,-41.96931 36.02626,-41.96931 -0.3835,0 -7.44052,2.0393 -15.68227,4.53178 -33.44004,10.11295 -59.65199,14.08282 -92.98499,14.08282 -33.39396,0 -59.53612,-3.96704 -93.16704,-14.13801 -8.34187,-2.52283 -15.30911,-4.41212 -15.48275,-4.19844 -0.17362,0.21369 16.12111,19.15521 36.21052,42.09228 l 36.52622,41.70385 -92.25702,222.9629 c -50.74136,122.6295 -92.89716,224.6253 -93.67955,226.6571 -1.39741,3.6291 0.5426,5.6595 109.87722,115 61.21487,61.2182 111.60244,111.3058 111.9724,111.3058 0.36996,0 50.75754,-50.0876 111.9724,-111.3058 z m 500.74274,25.4908 7.8313,-33.8149 18.7268,-0.9023 c 31.7113,-1.5278 58.4853,-6.3724 85.2863,-15.4316 l 11.544,-3.9021 5.6882,8.9329 c 3.1287,4.9131 11.5547,18.352 18.7246,29.8643 l 13.0361,20.9315 11.5572,-7.2291 c 6.3564,-3.976 27.2844,-16.9952 46.5065,-28.9315 19.2223,-11.9362 34.9723,-22.16 35,-22.7194 0.028,-0.5595 -8.0494,-13.9566 -17.9494,-29.7715 -9.9,-15.8148 -18,-29.0957 -18,-29.5133 0,-0.4175 4.9698,-5.9203 11.044,-12.2286 20.0404,-20.8122 38.1832,-46.4406 50.5998,-71.4768 3.0894,-6.2293 6.2334,-11.3285 6.9867,-11.3317 0.7532,0 15.9535,3.3628 33.7783,7.48 17.8249,4.1172 32.7704,7.1244 33.2122,6.6825 0.9786,-0.9786 24.379,-101.7285 24.379,-104.9634 0,-2.3728 1.2242,-2.0339 -52,-14.3915 l -15.3334,-3.56 -0.8472,-21.9543 c -1.1638,-30.1555 -4.7268,-50.3858 -13.8197,-78.4654 -3.9456,-12.1844 -4.5617,-15.3897 -3.124,-16.2521 20.7604,-12.4534 57.0336,-35.4892 57.0724,-36.2447 0.028,-0.5545 -12.9136,-21.7435 -28.7604,-47.0868 -20.3988,-32.6233 -29.3648,-45.8668 -30.7044,-45.3527 -1.0408,0.3994 -14.4752,8.618 -29.8545,18.2637 l -27.9623,17.5375 -10.4799,-10.0125 c -20.9258,-19.9924 -47.0176,-38.681 -71.7165,-51.3679 l -13.4105,-6.8886 7.8049,-33.59655 c 4.2928,-18.47798 7.4623,-33.94704 7.0433,-34.37563 -0.9086,-0.92955 -106.3849,-25.34893 -106.9997,-24.77212 -0.234,0.21942 -3.8917,15.60758 -8.1284,34.19589 l -7.7029,33.79701 -21.8718,0.8152 c -30.5465,1.1386 -61.7768,6.9509 -85.9559,15.9975 -4.0882,1.5296 -7.6252,2.5725 -7.8598,2.3175 -0.2347,-0.2549 -8.3517,-13.0635 -18.0377,-28.46355 -9.6861,-15.40003 -18.122,-28.5394 -18.7466,-29.19863 -1.5861,-1.67415 -94.7816,56.68538 -93.3899,58.48128 0.59,0.7612 9.0065,14.1574 18.7034,29.7694 l 17.6307,28.3853 -12.0024,12.5547 c -20.0444,20.9668 -36.9622,44.8084 -49.3058,69.4846 l -6.7413,13.4766 -34.1835,-7.9319 c -18.801,-4.3625 -34.3271,-7.7269 -34.5026,-7.4766 -0.7847,1.1199 -24.8288,106.8846 -24.3968,107.3165 0.2666,0.2666 15.4318,3.9469 33.7006,8.1784 l 33.2159,7.6936 0.9297,16.6334 c 1.9082,34.1411 6.4025,59.5618 15.0926,85.3663 2.5522,7.5784 4.108,14.1137 3.4576,14.5229 -0.6505,0.4094 -14.1315,8.8271 -29.9578,18.7062 -27.2302,16.9976 -28.6805,18.1072 -27.0117,20.6666 0.97,1.4876 14.2045,22.6258 29.4102,46.9739 l 27.6466,44.2692 10.2164,-6.3928 c 5.619,-3.516 19.0946,-11.9504 29.9457,-18.7431 l 19.7293,-12.3504 12.9374,12.5094 c 7.1155,6.8801 16.5773,15.2938 21.0261,18.697 13.3702,10.2278 36.4156,24.7494 48.8115,30.7576 6.4119,3.1078 11.6824,6.4384 11.7122,7.4014 0.03,0.963 -3.3257,16.433 -7.4567,34.378 -4.131,17.9449 -7.281,32.7969 -7,33.0042 0.6127,0.4523 103.8829,24.5714 105.9528,24.7456 0.8145,0.068 4.8488,-14.5896 9.2732,-33.6936 z m -6.7151,-129.0429 c -44.0191,-5.5992 -83.3636,-25.0604 -115.4018,-57.0817 -28.7461,-28.7312 -45.9809,-60.6304 -54.7815,-101.3938 -4.0188,-18.6139 -4.3645,-56.8631 -0.6806,-75.2849 12.4919,-62.4674 50.9179,-113.6214 106.1972,-141.3731 64.8992,-32.5812 139.7183,-28.0118 200.5676,12.2492 18.1272,11.9937 42.5142,36.3808 54.508,54.5079 46.231,69.8724 44.6606,159.3679 -3.9933,227.5691 -9.1035,12.7609 -29.7305,33.8182 -41.4667,42.3318 -43.2117,31.3462 -94.3278,44.9144 -144.9489,38.4755 z"
     id="path817"
     inkscape:connector-curvature="0" />
</svg>
