<?xml version="1.0" encoding="UTF-8" standalone="no"?>
<!-- Svg Vector Icons : http://www.onlinewebfonts.com/icon -->

<svg
   xmlns:dc="http://purl.org/dc/elements/1.1/"
   xmlns:cc="http://creativecommons.org/ns#"
   xmlns:rdf="http://www.w3.org/1999/02/22-rdf-syntax-ns#"
   xmlns:svg="http://www.w3.org/2000/svg"
   xmlns="http://www.w3.org/2000/svg"
   xmlns:sodipodi="http://sodipodi.sourceforge.net/DTD/sodipodi-0.dtd"
   xmlns:inkscape="http://www.inkscape.org/namespaces/inkscape"
   version="1.1"
   x="0px"
   y="0px"
   viewBox="0 0 1000 1000"
   enable-background="new 0 0 1000 1000"
   xml:space="preserve"
   id="svg12"
   sodipodi:docname="copies-white.svg"
   inkscape:version="0.92.4 (5da689c313, 2019-01-14)"><defs
   id="defs16" /><sodipodi:namedview
   pagecolor="#ffffff"
   bordercolor="#666666"
   borderopacity="1"
   objecttolerance="10"
   gridtolerance="10"
   guidetolerance="10"
   inkscape:pageopacity="0"
   inkscape:pageshadow="2"
   inkscape:window-width="931"
   inkscape:window-height="480"
   id="namedview14"
   showgrid="false"
   inkscape:zoom="0.236"
   inkscape:cx="500"
   inkscape:cy="500"
   inkscape:window-x="0"
   inkscape:window-y="0"
   inkscape:window-maximized="0"
   inkscape:current-layer="svg12" />
<metadata
   id="metadata2"> Svg Vector Icons : http://www.onlinewebfonts.com/icon <rdf:RDF><cc:Work
     rdf:about=""><dc:format>image/svg+xml</dc:format><dc:type
       rdf:resource="http://purl.org/dc/dcmitype/StillImage" /><dc:title></dc:title></cc:Work></rdf:RDF></metadata>
<g
   id="g10"
   style="fill:#ffffff;fill-opacity:1"><path
     d="m 500.2,550.3 c -5,0 -10.1,-1.3 -14.6,-3.7 L 31.2,298.6 c -10,-5.5 -16.1,-16 -16,-27.4 0.2,-11.4 6.7,-21.8 16.9,-26.9 L 491.2,13 c 8.7,-4.4 18.9,-4.3 27.6,0.1 l 454.4,231.3 c 10.1,5.2 16.6,15.5 16.7,27 0.2,11.4 -6.1,22 -16.1,27.3 l -459.2,248 c -4.4,2.3 -9.4,3.6 -14.4,3.6 z M 111.9,272.7 500.4,484.7 893.4,272.4 504.9,74.7 Z"
     id="path4"
     inkscape:connector-curvature="0"
     style="fill:#ffffff;fill-opacity:1" /><path
     d="m 968,469.6 -90.8,-46.2 -65.6,35.4 76.5,38.9 L 495.1,710 106.6,498 188.2,456.9 122.8,421.2 26.9,469.5 C 16.7,474.6 10.2,485 10,496.4 c -0.2,11.4 6,22 16,27.4 l 454.4,248 c 4.6,2.5 9.6,3.7 14.6,3.7 5,0 10,-1.2 14.5,-3.7 l 459.2,-248 c 10,-5.4 16.2,-15.9 16.1,-27.3 -0.2,-11.3 -6.7,-21.7 -16.8,-26.9 z"
     id="path6"
     inkscape:connector-curvature="0"
     style="fill:#ffffff;fill-opacity:1" /><path
     d="m 968,684.3 -86,-42.4 -65.6,35.4 71.7,35.1 -393,212.3 -388.5,-212 75.8,-34.4 -65.4,-35.7 -90.2,41.6 c -10.2,5.1 -16.7,15.5 -16.9,26.9 -0.2,11.4 6,22 16,27.4 l 454.4,248 c 4.6,2.5 9.6,3.7 14.6,3.7 5,0 10,-1.2 14.5,-3.7 l 459.2,-248 c 10,-5.4 16.2,-15.9 16.1,-27.3 -0.1,-11.3 -6.6,-21.7 -16.7,-26.9 z"
     id="path8"
     inkscape:connector-curvature="0"
     style="fill:#ffffff;fill-opacity:1" /></g>
</svg>