<?xml version="1.0" encoding="UTF-8" standalone="no"?>
<svg
   xmlns:dc="http://purl.org/dc/elements/1.1/"
   xmlns:cc="http://creativecommons.org/ns#"
   xmlns:rdf="http://www.w3.org/1999/02/22-rdf-syntax-ns#"
   xmlns:svg="http://www.w3.org/2000/svg"
   xmlns="http://www.w3.org/2000/svg"
   xmlns:sodipodi="http://sodipodi.sourceforge.net/DTD/sodipodi-0.dtd"
   xmlns:inkscape="http://www.inkscape.org/namespaces/inkscape"
   id="Capa_1"
   data-name="Capa 1"
   viewBox="0 0 92.876953 70.869143"
   version="1.1"
   sodipodi:docname="lupa.svg"
   width="92.876953"
   height="70.869141"
   inkscape:version="0.92.4 (5da689c313, 2019-01-14)">
  <metadata
     id="metadata972">
    <rdf:RDF>
      <cc:Work
         rdf:about="">
        <dc:format>image/svg+xml</dc:format>
        <dc:type
           rdf:resource="http://purl.org/dc/dcmitype/StillImage" />
        <dc:title>lupa</dc:title>
      </cc:Work>
    </rdf:RDF>
  </metadata>
  <sodipodi:namedview
     pagecolor="#ffffff"
     bordercolor="#666666"
     borderopacity="1"
     objecttolerance="10"
     gridtolerance="10"
     guidetolerance="10"
     inkscape:pageopacity="0"
     inkscape:pageshadow="2"
     inkscape:window-width="2560"
     inkscape:window-height="1346"
     id="namedview970"
     showgrid="false"
     fit-margin-top="0"
     fit-margin-left="0"
     fit-margin-right="0"
     fit-margin-bottom="0"
     inkscape:zoom="4.9572023"
     inkscape:cx="-22.135392"
     inkscape:cy="9.9775928"
     inkscape:window-x="-11"
     inkscape:window-y="-11"
     inkscape:window-maximized="1"
     inkscape:current-layer="Capa_1" />
  <defs
     id="defs959">
    <style
       id="style957">.cls-1{fill:#fff;}.cls-2{fill:#211915;}</style>
  </defs>
  <title
     id="title961">lupa</title>
  <path
     d="M 27.660156,0 A 27.66,27.66 0 0 0 0,27.660157 27.66,27.66 0 0 0 27.660156,55.320318 27.66,27.66 0 0 0 48.546871,45.742188 l 38.69336,25.12695 5.63672,-8.67968 -39.13476,-25.414067 A 27.66,27.66 0 0 0 55.320311,27.660157 27.66,27.66 0 0 0 27.660156,0 Z m 0,9.25 A 18.41,18.41 0 0 1 46.070311,27.660157 18.41,18.41 0 0 1 27.660156,46.070318 18.41,18.41 0 0 1 9.25,27.660157 18.41,18.41 0 0 1 27.660156,9.25 Z"
     id="rect963"
     style="fill:#ffffff;fill-opacity:1"
     inkscape:connector-curvature="0" />
</svg>
